<svg id="Capa_1" enable-background="new 0 0 512 512" height="512" viewBox="0 0 512 512" width="512" xmlns="http://www.w3.org/2000/svg"><g><g><g clip-rule="evenodd" fill-rule="evenodd"><path d="m209.038 357.112c0 74.956 60.838 135 135 135 74.559 0 135-60.441 135-135s-60.441-135-135-135c-74.186-.001-135 60.07-135 135zm91.011-64.349c0-18.09 20.819-32.755 46.5-32.755s46.5 14.665 46.5 32.755-20.819 32.755-46.5 32.755-46.5-14.665-46.5-32.755zm78.367 77.973c16.56-19.629 41.194-26.085 55.02-14.42 13.827 11.665 11.611 37.034-4.949 56.663s-41.194 26.085-55.021 14.419c-13.826-11.665-11.61-37.033 4.95-56.662zm-63.734 0c16.56 19.629 18.776 44.997 4.949 56.663-13.827 11.665-38.46 5.21-55.021-14.419-16.56-19.629-18.776-44.997-4.949-56.663s38.46-5.21 55.021 14.419z" fill="#fbf2e2" id="id_101"></path><path d="m188.752 0c0 84.864-166.217 215.5-155.286 357.112 4.643 60.148 42.909 147.388 155.286 147.388 39.648 0 70.06-10.868 93.036-27.565-43.229-22.504-72.75-67.716-72.75-119.823 0-63.355 43.641-116.516 102.502-131.063-45.729-89.248-122.788-168.262-122.788-226.049z" fill="#fa1949" id="id_102"></path><path d="m188.752 0c0 84.864-166.217 215.5-155.286 357.112 7.16 92.756 72.82 152.21 166.604 147.082-103.746-5.595-139.619-88.976-144.104-147.082-9.191-119.077 106.86-230.39 144.031-313.258-7.034-15.684-11.245-30.349-11.245-43.854zm70.777 490.03c-43.874-27.956-72.991-77.034-72.991-132.918 0-71.887 48.179-132.515 113.98-151.402 3.825 6.717 7.516 13.497 11.022 20.339-58.861 14.546-102.502 67.708-102.502 131.063 0 52.107 29.521 97.318 72.75 119.823-6.76 4.912-14.165 9.319-22.259 13.095z" fill="#c21d44" id="id_103"></path><path d="m209.038 357.112c0 79.155 67.62 141.024 146.26 134.529-68.97-5.704-123.76-63.398-123.76-134.529 0-71.107 54.769-128.824 123.759-134.529-78.641-6.49-146.259 55.372-146.259 134.529z" fill="#f7e0ba" id="id_104"></path><path d="m300.049 292.763c0 18.09 20.819 32.755 46.5 32.755s46.5-14.665 46.5-32.755-20.819-32.755-46.5-32.755-46.5 14.665-46.5 32.755zm78.367 77.973c-16.56 19.629-18.776 44.997-4.949 56.663 13.827 11.665 38.461 5.21 55.021-14.419s18.776-44.997 4.949-56.663-38.461-5.21-55.021 14.419zm-63.734 0c-16.56-19.629-41.194-26.085-55.021-14.42-13.826 11.665-11.611 37.034 4.949 56.663s41.194 26.085 55.021 14.419c13.826-11.665 11.611-37.033-4.949-56.662z" fill="#d91515" id="id_105"></path></g><g><path d="m233.752 164.998h-15v-15h15zm-15-29.999h-15v-15h15z" fill="#fff" id="id_106"></path></g></g><g><path d="m344.038 214.611c-9.761 0-19.296.989-28.51 2.867-17.016-32.264-37.479-62.612-57.308-92.006-33.251-49.29-61.968-91.859-61.968-125.472h-15c0 33.613-28.721 76.184-61.977 125.477-8.118 12.033-16.512 24.475-24.746 37.195l12.592 8.151c8.157-12.601 16.511-24.982 24.589-36.957 24.165-35.818 46.031-68.231 57.041-97.527 11.009 29.295 32.872 61.705 57.033 97.521 18.961 28.107 38.506 57.098 54.828 87.524-57.404 18.409-99.076 72.289-99.076 135.726 0 50.454 26.359 94.865 66.027 120.193-22.052 13.071-48.498 19.697-78.811 19.697-47.989 0-85.758-16.288-112.258-48.411-19.943-24.175-32.901-57.728-35.55-92.054-2.572-33.323 1.715-83.119 58.171-173.155l-12.708-7.969c-30.879 49.247-65.652 114.47-60.419 182.278 2.882 37.333 17.073 73.944 38.936 100.445 13.683 16.586 30.379 29.569 49.627 38.586 21.64 10.139 46.605 15.28 74.201 15.28 36.412 0 67.91-8.88 93.716-26.389 18.646 8.97 39.531 14.001 61.57 14.001 35.119 0 68.86-12.893 95.008-36.303l-10.005-11.176c-23.394 20.944-53.582 32.479-85.003 32.479-70.304 0-127.5-57.196-127.5-127.5s57.196-127.5 127.5-127.5 127.5 57.196 127.5 127.5c0 31.418-11.535 61.607-32.479 85.003l11.176 10.005c23.411-26.151 36.303-59.893 36.303-95.008 0-78.575-63.925-142.501-142.5-142.501z" id="id_107"></path><path d="m330.049 285.263h33.001v15h-33.001z" id="id_108"></path><path d="m386.951 384.357h33.001v15h-33.001z" transform="matrix(.645 -.764 .764 .645 -156.214 447.532)" id="id_109"></path><path d="m282.146 375.357h15v33.001h-15z" transform="matrix(.764 -.645 .645 .764 -184.42 279.125)" id="id_110"></path><path d="m368.631 433.131c5.951 5.021 13.43 7.597 21.717 7.597 3.695 0 7.552-.512 11.506-1.548 11.875-3.112 23.369-10.699 32.366-21.364 8.998-10.665 14.541-23.273 15.609-35.501 1.153-13.202-2.951-24.47-11.556-31.73-8.604-7.26-20.402-9.408-33.223-6.048-11.875 3.112-23.369 10.699-32.366 21.364-8.998 10.665-14.541 23.273-15.609 35.501-1.153 13.201 2.951 24.469 11.556 31.729zm3.387-30.425c.801-9.175 5.109-18.812 12.13-27.134s15.794-14.191 24.704-16.526c2.664-.698 5.221-1.043 7.623-1.043 4.782 0 8.95 1.368 12.125 4.046 10.463 8.828 7.787 29.936-5.845 46.094-7.021 8.322-15.794 14.191-24.704 16.526-7.965 2.088-14.978 1.021-19.748-3.003s-7.001-10.757-6.285-18.96z" id="id_111"></path><path d="m383.749 322.056c10.834-7.631 16.8-18.034 16.8-29.292s-5.966-21.662-16.8-29.293c-10.036-7.069-23.247-10.962-37.2-10.962s-27.165 3.893-37.2 10.962c-10.834 7.631-16.8 18.035-16.8 29.293s5.966 21.661 16.801 29.293c10.035 7.069 23.247 10.962 37.2 10.962s27.163-3.894 37.199-10.963zm-76.2-29.293c0-13.69 17.86-25.255 39-25.255s39 11.565 39 25.255c0 13.689-17.86 25.255-39 25.255-21.141 0-39-11.565-39-25.255z" id="id_112"></path><path d="m288.048 344.536c-12.818-3.358-24.618-1.212-33.223 6.048-8.604 7.26-12.708 18.528-11.555 31.73 1.068 12.229 6.611 24.836 15.608 35.501 8.998 10.665 20.492 18.251 32.367 21.364 3.954 1.036 7.81 1.548 11.506 1.548 8.286 0 15.766-2.576 21.717-7.597 8.605-7.26 12.708-18.528 11.556-31.73-1.068-12.229-6.611-24.836-15.609-35.501-8.998-10.664-20.493-18.251-32.367-21.363zm26.746 77.13c-10.463 8.827-30.82 2.634-44.452-13.523-13.631-16.158-16.308-37.267-5.845-46.094 3.244-2.737 7.438-4.03 12.089-4.03 10.35 0 22.957 6.405 32.362 17.553 13.633 16.158 16.31 37.266 5.846 46.094z" id="id_113"></path></g></g></svg>