<?xml version="1.0" encoding="iso-8859-1"?>
<!-- Generator: Adobe Illustrator 21.1.0, SVG Export Plug-In . SVG Version: 6.00 Build 0)  -->
<svg version="1.1" id="Layer_1" xmlns="http://www.w3.org/2000/svg" xmlns:xlink="http://www.w3.org/1999/xlink" x="0px" y="0px"
	 viewBox="0 0 24 24" enable-background="new 0 0 24 24" xml:space="preserve">
<g>
	<path fill="#E83829" d="M16.4997559,1c-1.6805725,0-3.2922688,0.8388672-4.5002108,2c-1.207942-1.1611328-2.8187284-2-4.499301-2
		C3.9164541,1,1.0005968,3.9160156,1.0005968,7.5c0,1.5800781,0.5960575,3.0924931,1.6190529,4.2827148
		C5.0024667,14.5550451,12,23,12,23s6.9956188-8.4373331,9.3744907-11.2099609
		C22.4071503,10.5864534,22.999403,9.0766602,22.999403,7.5C22.999403,3.9160156,20.0835457,1,16.4997559,1z"/>
	<path opacity="0.1" fill="#010101" d="M21.3744907,11.5400391C18.9955921,14.3126221,12,22.75,12,22.75
		s-6.9975452-8.4449463-9.3803501-11.2172852c-0.8812578-1.0252876-1.4461181-2.1656427-1.5857593-3.4760799
		C1.0144742,7.8744278,1.0032789,7.6889319,1.0005968,7.5c-0.0013427,0.0543823,0-0.0546875,0,0
		c0,0.1975083,0.009313,0.393959,0.0276086,0.5888548c0.128071,1.3642845,0.6963043,2.6523933,1.5914443,3.6938601
		C5.0024548,14.5550537,12,23,12,23s6.9955921-8.4373779,9.3744907-11.2099609
		c0.7099533-0.8274832,1.2117443-1.7996702,1.4560337-2.8388157C22.9415665,8.4788828,22.999403,7.9927077,22.999403,7.5
		c0-0.0546875,0.0013428,0.0543213,0,0c-0.0068474,0.4825959-0.0691528,0.9427805-0.1825066,1.3834705
		C22.5675163,9.852994,22.0710602,10.7281637,21.3744907,11.5400391z"/>
	<path opacity="0.2" fill="#FFFFFF" d="M7.5002441,1.25c1.6805725,0,3.2913866,0.8388672,4.4993286,2
		c1.207942-1.1611328,2.8196106-2,4.5001831-2c3.5291061,0,6.404377,2.8292847,6.4914684,6.3380737
		C22.9916515,7.5583496,22.999403,7.5297852,22.999403,7.5c0-3.5839844-2.9158573-6.5-6.4996471-6.5
		c-1.6805725,0-3.2922411,0.8388672-4.5001831,2c-1.207942-1.1611328-2.8187561-2-4.4993286-2
		C3.9164541,1,1.0005968,3.9160156,1.0005968,7.5c0,0.0297241,0.007812,0.0582886,0.0082393,0.0879517
		C1.0959896,4.0792847,3.9711387,1.25,7.5002441,1.25z"/>
	<polygon fill="#F3F2F3" points="11,18.9736328 8.3828125,13 1,13 1,12 9,12 10.6445313,16.0263672 13.5270996,4.5270996 
		15.7207031,12 23,12 23,13 15,13 13.7087402,8.2370605 	"/>
	<linearGradient id="SVGID_1_" gradientUnits="userSpaceOnUse" x1="7.4139862" y1="9.2404938" x2="16.5867462" y2="18.4132538">
		<stop  offset="0" style="stop-color:#010101;stop-opacity:0.2"/>
		<stop  offset="1" style="stop-color:#010101;stop-opacity:0"/>
	</linearGradient>
	<path fill="url(#SVGID_1_)" d="M15,13l-1.2912598-4.7629395L11,18.9736328L8.3828125,13H3.65448C6.5741577,16.4525757,12,23,12,23
		s5.4313965-6.5501099,8.3469849-10H15z"/>
	<linearGradient id="SVGID_2_" gradientUnits="userSpaceOnUse" x1="1.2199465" y1="5.5882211" x2="21.9488239" y2="15.2542553">
		<stop  offset="0" style="stop-color:#FFFFFF;stop-opacity:0.2"/>
		<stop  offset="1" style="stop-color:#FFFFFF;stop-opacity:0"/>
	</linearGradient>
	<path fill="url(#SVGID_2_)" d="M21.375,11.7900391C22.4077148,10.5864258,23,9.0766602,23,7.5C23,3.9160156,20.0839844,1,16.5,1
		c-1.6806641,0-3.2924194,0.8388672-4.5004272,2C10.7915649,1.8388672,9.1806641,1,7.5,1C3.9160156,1,1,3.9160156,1,7.5
		c0,1.5800781,0.5960693,3.0924683,1.6191406,4.2827148C2.6746826,11.84729,2.7444458,11.9294434,2.8048096,12H1v1h2.6549683
		C6.5784302,16.4574585,12,23,12,23s5.4276123-6.5457764,8.3464966-10H23v-1h-1.8041382
		C21.2539673,11.9320068,21.3214111,11.852478,21.375,11.7900391z"/>
</g>
<g>
</g>
<g>
</g>
<g>
</g>
<g>
</g>
<g>
</g>
<g>
</g>
<g>
</g>
<g>
</g>
<g>
</g>
<g>
</g>
<g>
</g>
<g>
</g>
<g>
</g>
<g>
</g>
<g>
</g>
</svg>
