<?xml version="1.0" encoding="iso-8859-1"?>
<!-- Generator: Adobe Illustrator 21.0.2, SVG Export Plug-In . SVG Version: 6.00 Build 0)  -->
<svg version="1.1" id="Layer_1" xmlns="http://www.w3.org/2000/svg" xmlns:xlink="http://www.w3.org/1999/xlink" x="0px" y="0px"
	 viewBox="0 0 100.75 100.75" style="enable-background:new 0 0 100.75 100.75;" xml:space="preserve">
<path d="M92.385,83.134L73.019,61.901c0.087-0.085,0.181-0.166,0.257-0.26c0.64-0.796,1.167-2.207,0.051-4.409
	c-0.062-0.121-0.139-0.233-0.229-0.333l-27.53-30.175c-0.003-0.003-0.006-0.007-0.01-0.011l-9.086-9.959
	c-0.043-0.052-0.086-0.103-0.136-0.149l-3.339-3.66c-2.711-2.974-7.341-3.185-10.323-0.468c-2.969,2.722-3.179,7.35-0.469,10.315
	l35.357,38.755c0.196,0.215,0.452,0.369,0.734,0.442c1.184,0.305,3.518,0.848,6.025,1.155l2.48,2.715l-1.319,3.078
	c-0.217,0.506-0.139,1.09,0.202,1.521c0.271,0.342,6.675,8.417,11.048,12.096c3.257,2.738,8.781,3.187,12.051,3.187
	c1.487,0,2.508-0.093,2.635-0.105c0.565-0.054,1.052-0.423,1.256-0.954S92.768,83.553,92.385,83.134z M32.311,29.416L35.83,20.5
	l6.942,7.609l-3.516,8.92L32.311,29.416z M24.699,14.692c1.755-1.6,4.484-1.478,6.083,0.275l2.797,3.065l-3.519,8.916l-5.636-6.178
	C22.826,19.023,22.951,16.294,24.699,14.692z M41.508,39.497l3.516-8.92L70.735,58.76c0.268,0.581,0.272,0.914,0.203,1
	c-0.109,0.135-0.3,0.247-0.554,0.337c-0.113,0.022-0.22,0.049-0.327,0.097c-1.036,0.249-2.803,0.247-4.908,0.018
	c-0.023-0.002-0.044-0.007-0.066-0.008c-1.72-0.191-3.658-0.531-5.606-1.012L41.508,39.497z M78.666,80.26
	c-3.425-2.882-8.412-8.923-10.068-10.968l1.346-3.139c0.231-0.541,0.126-1.168-0.271-1.603l-1.097-1.2
	c0.541-0.028,1.061-0.083,1.553-0.169l17.834,19.554C84.906,82.653,80.861,82.106,78.666,80.26z"/>
<path d="M67.026,86.431H6.57c-0.828,0-1.5,0.671-1.5,1.5s0.672,1.5,1.5,1.5h60.456c0.828,0,1.5-0.671,1.5-1.5
	S67.854,86.431,67.026,86.431z"/>
</svg>
