<?xml version="1.0" encoding="UTF-8" standalone="no"?> <svg height="512pt" viewBox="-86 0 512 512" width="512pt" xmlns="http://www.w3.org/2000/svg"><path d="m170.332031 0c-49.671875 0-89.933593 40.265625-89.933593 89.9375v126.851562c0 6.582032 5.339843 11.921876 11.925781 11.921876h156.023437c6.585938 0 11.925782-5.339844 11.925782-11.921876 0-3.238281 0-123.871093 0-126.851562 0-49.671875-40.265626-89.9375-89.941407-89.9375zm0 0" fill="#707487"/><path d="m111.304688 216.785156c0-1.320312 0-125.527344 0-126.847656 0-44.402344 32.175781-81.285156 74.480468-88.609375-5.019531-.871094-10.183594-1.328125-15.453125-1.328125-49.671875 0-89.933593 40.265625-89.933593 89.9375v126.851562c0 6.582032 5.339843 11.921876 11.925781 11.921876h30.90625c-6.585938 0-11.925781-5.339844-11.925781-11.925782zm0 0" fill="#52586d"/><path d="m124.476562 512h90.289063v-263.371094l-1.636719-.632812c-3.832031-1.484375-6.359375-5.171875-6.359375-9.285156v-26.097657c-22.992187 15.859375-52.71875 14.296875-73.570312.976563v25.125c0 4.109375-2.523438 7.796875-6.355469 9.28125l-2.367188.917968zm0 0" fill="#f0a479"/><path d="m164 223.8125c-11.085938-.898438-21.773438-4.457031-30.800781-10.222656v25.125c0 4.109375-2.523438 7.796875-6.355469 9.28125l-2.367188.917968v263.085938h39.523438zm0 0" fill="#e5966e"/><path d="m214.765625 272.960938-.335937.40625c-22.359376 26.914062-67.847657 26.71875-89.953126-.40625v239.039062h90.289063zm0 0" fill="#d665d3"/><path d="m164 293.160156c-15.078125-1.34375-29.640625-8.070312-39.523438-20.199218v239.039062h39.523438zm0 0" fill="#c64ac6"/><path d="m126.539062 248.117188-90.546874 35.101562s-35.992188 14.796875-35.992188 55.828125v88.453125 72.507812c0 6.625 5.371094 11.992188 11.992188 11.992188h114.542968v-263.882812zm0 0" fill="#d8dce5"/><path d="m30.90625 500.007812v-72.507812c0-33.46875 0-89.480469 0-109.074219 0-17.140625 6.289062-29.691406 13.601562-38.507812l-8.515624 3.300781s-35.992188 14.796875-35.992188 55.828125v88.453125 72.507812c0 6.625 5.371094 11.992188 11.992188 11.992188h30.910156c-6.625 0-11.996094-5.371094-11.996094-11.992188zm0 0" fill="#c3c8d1"/><path d="m304.082031 283.21875-90.953125-35.222656c-.148437-.058594-.277344-.140625-.421875-.203125v264.207031h115.371094c6.625 0 11.996094-5.371094 11.996094-11.992188v-160.960937c-.003907-41.03125-35.992188-55.828125-35.992188-55.828125zm0 0" fill="#d8dce5"/><path d="m250.097656 499.035156c-4.265625 0-7.726562-3.460937-7.726562-7.726562 0-4.269532 3.460937-7.730469 7.726562-7.730469 3.636719 0 6.710938-2.425781 6.710938-5.296875v-57.074219c0-2.871093-3.074219-5.296875-6.710938-5.296875h-22.957031c-3.636719 0-6.707031 2.425782-6.707031 5.296875v57.074219c0 2.871094 3.074218 5.296875 6.707031 5.296875 4.269531 0 7.726563 3.460937 7.726563 7.730469 0 4.265625-3.457032 7.726562-7.726563 7.726562-12.21875 0-22.160156-9.308594-22.160156-20.753906v-57.074219c0-11.441406 9.941406-20.753906 22.160156-20.753906h22.957031c12.222656 0 22.164063 9.3125 22.164063 20.753906v57.074219c0 11.445312-9.941407 20.753906-22.164063 20.753906zm0 0" fill="#707487"/><path d="m238.621094 415.910156c-4.269532 0-7.726563-3.460937-7.726563-7.726562v-51.078125c0-4.269531 3.457031-7.726563 7.726563-7.726563 4.265625 0 7.726562 3.457032 7.726562 7.726563v51.078125c0 4.265625-3.460937 7.726562-7.726562 7.726562zm0 0" fill="#00aaf0"/><path d="m101.453125 429.882812c-4.269531 0-7.726563-3.457031-7.726563-7.726562v-65.050781c0-4.269531 3.457032-7.726563 7.726563-7.726563 4.265625 0 7.726563 3.457032 7.726563 7.726563v65.050781c0 4.269531-3.460938 7.726562-7.726563 7.726562zm0 0" fill="#00aaf0"/><path d="m298.949219 512v-147.167969c0-4.269531-3.460938-7.726562-7.726563-7.726562-4.269531 0-7.730468 3.457031-7.730468 7.726562v147.167969zm0 0" fill="#c3c8d1"/><path d="m56.578125 512v-147.167969c0-4.269531-3.460937-7.726562-7.726563-7.726562-4.269531 0-7.730468 3.457031-7.730468 7.726562v147.167969zm0 0" fill="#c3c8d1"/><path d="m253.558594 340.082031-14.039063-10.734375c-3.320312-2.535156-3.550781-7.1875-.496093-9.996094l24.570312-22.636718c2.382812-2.191406 2.835938-5.621094 1.09375-8.285156l-17.871094-27.386719-33.6875-13.046875c-.148437-.058594-.28125-.140625-.421875-.203125v155.054687l42.101563-53.578125c2.265625-2.886719 1.71875-6.917969-1.25-9.1875zm0 0" fill="#e4eaf8"/><path d="m74.554688 288.429688c-1.738282 2.664062-1.285157 6.09375 1.09375 8.285156l24.574218 22.636718c3.050782 2.8125 2.820313 7.460938-.5 9.996094l-14.035156 10.734375c-2.96875 2.269531-3.519531 6.300781-1.25 9.183594l42.101562 53.582031v-154.730468l-34.375 13.324218zm0 0" fill="#e4eaf8"/><path d="m101.453125 464.347656c-13.761719 0-24.960937-11.199218-24.960937-24.957031 0-13.761719 11.199218-24.960937 24.960937-24.960937s24.957031 11.199218 24.957031 24.960937c0 13.757813-11.195312 24.957031-24.957031 24.957031zm0 0" fill="#707487"/><path d="m99.519531 439.390625c0-9.613281 5.464844-17.964844 13.445313-22.132813-3.445313-1.800781-7.363282-2.828124-11.511719-2.828124-13.761719 0-24.960937 11.199218-24.960937 24.960937 0 13.757813 11.199218 24.957031 24.960937 24.957031 4.148437 0 8.0625-1.027344 11.511719-2.828125-7.980469-4.167969-13.445313-12.519531-13.445313-22.128906zm0 0" fill="#52586d"/><path d="m101.453125 429.882812c-5.242187 0-9.503906 4.265626-9.503906 9.507813 0 5.238281 4.261719 9.503906 9.503906 9.503906 5.238281 0 9.503906-4.265625 9.503906-9.503906 0-5.242187-4.265625-9.507813-9.503906-9.507813zm0 0" fill="#434a5e"/><path d="m234.53125 116.273438v48.140624c0 .585938-.03125 1.167969-.046875 1.75 16.136719 1.671876 31.257813-10.117187 31.257813-24.945312 0-14.8125-15.09375-26.589844-31.210938-24.945312zm0 0" fill="#f0a479"/><path d="m260.273438 155.863281c0-10.015625 0-20.105469 0-29.285156-5.824219-7.039063-15.578126-11.34375-25.742188-10.304687v48.140624c0 .585938-.027344 1.167969-.046875 1.75 10.1875 1.054688 19.957031-3.253906 25.789063-10.300781zm0 0" fill="#e5966e"/><path d="m231.332031 104.46875c-8.003906-2.433594-23.691406-8.839844-38.800781-24.421875-2.46875-2.542969-6.503906-2.355469-8.765625.21875-10.585937 12.074219-39.066406 41.582031-74.761719 54.761719-2.34375.863281-3.898437 3.09375-3.898437 5.59375v23.792968c0 33.59375 26.320312 64.296876 66.15625 64.296876 35.457031 0 64.300781-28.84375 64.300781-64.296876v-54.238281c0-2.625-1.71875-4.941406-4.230469-5.707031zm0 0" fill="#f7b594"/><path d="m136.011719 164.414062v-42.90625c-8.34375 5.25-17.414063 9.976563-27.007813 13.519532-2.34375.867187-3.898437 3.097656-3.898437 5.59375v23.792968c0 33.59375 26.320312 64.296876 66.15625 64.296876 5.140625 0 10.136719-.621094 14.929687-1.765626-30.738281-6.957031-50.179687-33.667968-50.179687-62.53125zm0 0" fill="#f0a479"/></svg>