<svg version="1.1" id="Layer_1" xmlns="http://www.w3.org/2000/svg" xmlns:xlink="http://www.w3.org/1999/xlink" x="0px" y="0px" viewBox="0 0 491.8 491.8" style="enable-background:new 0 0 491.8 491.8;" xml:space="preserve">
<style type="text/css">
	.st0{fill:#040404;}
	.st1{fill:#050505;}
	.st2{fill:#B6B15D;}
	.st3{fill:#77B9DC;}
	.st4{fill:#FFFFFF;}
	.st5{fill:#7EB9E5;}
	.st6{fill:#4681A1;}
	.st7{fill:#171717;}
	.st8{fill:#141414;}
	.st9{fill:#C3B15F;}
	.st10{fill:#151515;}
	.st11{fill:#232323;}
	.st12{fill:#1E1E1E;}
	.st13{fill:#C5BE92;}
	.st14{fill:#BFB26E;}
	.st15{fill:#7FB5DB;}
	.st16{fill:#1B1B1B;}
	.st17{fill:#1D1D1D;}
	.st18{fill:#111111;}
	.st19{fill:#070707;}
	.st20{fill:#F9F9F9;}
	.st21{fill:#F5F5F5;}
	.st22{fill:#080808;}
	.st23{fill:#0F0F0F;}
	.st24{fill:#FAFAFA;}
	.st25{fill:#81BAD8;}
	.st26{fill:#C4B06B;}
	.st27{fill:#1A1A1A;}
	.st28{fill:#010101;}
	.st29{fill:#2C2C2C;}
	.st30{fill:#0A0A0A;}
	.st31{fill:#D6D6D6;}
	.st32{fill:#C4B866;}
	.st33{fill:#060606;}
</style>
<g>
<path class="st0" d="M148.4,329.6c-11.1-33.8-21.6-64.9-31.5-96.1c-2.7-8.5-9.4-9-16-10.9c-28.7-8.3-46-27.2-50.7-56.6
		c-4.6-28.6,6-52.1,29.7-67.9c23.7-15.8,50.1-17.2,73.9-1.1c13,8.8,17.3,0.8,24.3-5.9c78.5-73.7,202.7-61.1,265.6,26.3
		c11.2,15.6,11,27.2-0.1,42.9c-56.4,79.5-167.5,98.2-248.2,41.1c-5.2-3.7-9.3-14.8-18.4-7.7c-8.8,6.8-9.9,15.9-6,26.8
		c4.6,12.7,7.3,17.6,25.6,19.6c22.6,2.5,49.7-14.4,69.6,9c1,1.2,4.1,1,6.2,0.8c35.6-2.9,35.7-3,46.6,29.5
		c6.4,18.9,12.6,37.9,18.6,57c1.7,5.4,6.2,12.7-3,15.3c-8.7,2.5-9.6-5.9-11.4-11.3c-6.9-20.4-13.2-41-20-61.4
		c-3.1-9.3-5.5-21.7-19.3-17.4c-12.1,3.8-8.7,14.5-5.7,23.5c2.2,6.7,5.9,14.7-3.7,17.1c-7.7,1.9-8.6-7.2-10.7-12.5
		c-2.5-6.4-4-13.3-6.3-19.8c-3.1-8.7-5.9-19.4-18.4-15.8c-12.8,3.7-9.4,13.6-6.2,22.7c2,5.8,4.1,11.6,5.6,17.6
		c1.1,4.5,1.5,9.6-4.3,11.4c-5.7,1.8-8.4-2.1-10-6.7c-4-11.6-8-23.3-11.8-35c-2.8-8.7-8.2-13.3-17.3-10.2c-8.4,2.8-8.9,10-6.8,17.2
		c3.2,11.1,7,22,10.5,32.9c1.9,6.1,3.9,13-4.5,14.9c-6.9,1.5-8.3-5.5-9.9-10.5c-10.4-31.4-20.3-63-31-94.3
		c-3.2-9.4-3.8-24.6-19.3-20.1c-15.7,4.5-8.5,17.2-5.1,26.9c17.5,49.2,29.3,100.3,51.1,148c1.7,3.8,3.2,6.9,0.1,10.3
		c-4.5,5-8.6,1.8-11.8-1.4c-8.2-8.2-15.6-17.1-23.9-25.1c-7.1-6.9-13.2-20.9-25.9-10.4c-11.1,9.2-0.9,18.1,4.5,25.9
		c19.5,28.2,33.6,61.5,69.4,74.4c5.3,1.9,7.1,6.1,4.5,10.9c-2.8,5.3-7.5,3.7-12,1.8c-18.1-7.6-33.9-18.2-45.3-34.5
		c-10.1-14.5-19.7-29.4-29.8-44c-9.1-13.2-16.8-26.8-5.5-42.2C115.7,319.5,130.7,322.9,148.4,329.6z" id="id_101"></path>
<path class="st23" d="M242.6,459c-5.8-1.4-16.9,4.3-17.1-7.6c-0.2-9.9,10.1-6.9,16.3-7.6c25.7-2.6,49.5-9.7,69.4-27
		c12.1-10.5,19.2-23.5,20.2-39.7c0.4-6.2-3-16.5,7.2-16.1c10.9,0.4,8.2,11.1,7.9,18.2c-0.9,22.1-11.6,39.4-28.9,52.6
		C295.8,448.5,270.9,457.5,242.6,459z" id="id_102" style="fill: rgb(0, 0, 0);"></path>
<path class="st9" d="M241.2,68.1c-26.9,49.1-23.4,85.5,7,112.6c26.5,23.7,67.2,25.7,96,4.7c35-25.4,40.4-61.4,16.1-114.8
		c31.6,12.7,54.6,32.6,72.8,58.9c5.5,7.9,3.7,13.1-1.1,20.4c-50.2,76.4-163.8,92.9-234.1,33.9c-7.7-6.5-12.3-12.8-10.1-23.5
		c1.1-5.8-0.3-12.3-1.5-18.2c-7.3-34.1-6-37.8,24.1-57.1C218.4,79.7,227.3,75.6,241.2,68.1z" id="id_103" style="fill: rgb(222, 241, 255);"></path>
<path class="st24" d="M361.5,122.7c0.2,33.3-27.6,61.6-61.2,62.2c-33.9,0.7-64.1-28.8-63.8-62.3c0.3-33.4,28.3-61.6,61.6-62.2
		C332.6,59.8,361.3,88,361.5,122.7z" id="id_104" style="fill: rgb(0, 0, 0);"></path>
<path class="st25" d="M172.2,159.8c-0.7,3-1.4,10-3.7,16.4c-2.6,7.2-4.3,13.1-15.9,6.4c-19.7-11.3-34-5.7-41.8,15.6
		c-4.3,12-8.6,9.6-16.3,5.8c-23.7-11.7-35.6-39.1-27.7-64c8.5-26.4,34-42.3,61-37.8C153.6,106.5,172.5,129.3,172.2,159.8z" id="id_105" style="fill: rgb(138, 255, 156);"></path>
<path class="st18" d="M332.8,121.5c0.6,18.2-13.9,33.9-32.4,35.1c-17.7,1.1-34-14.3-34.6-32.6c-0.6-18.4,13.9-34.1,32.3-35
		C315.9,88.1,332.2,103.3,332.8,121.5z" id="id_106" style="fill: rgb(0, 0, 0);"></path>
<path class="st9" d="M317.6,122c-1.4,11.2-7,18.9-18.8,18.5c-10.4-0.3-17.3-6.6-17.5-17.1c-0.2-11.6,6.7-18.4,18.4-18.4
		C310.5,105,315.7,112,317.6,122z" id="id_107" style="fill: rgb(255, 255, 255);"></path>
</g>
</svg>