<svg xmlns="http://www.w3.org/2000/svg" viewBox="0 0 512 512"><g id="Chest_X-ray"><path d="M460.4951,65.2144H51.5049a6.5,6.5,0,0,0-6.5,6.5V440.2856a6.5,6.5,0,0,0,6.5,6.5h408.99a6.5,6.5,0,0,0,6.5-6.5V71.7144A6.5,6.5,0,0,0,460.4951,65.2144Zm-6.5,368.5712H58.0049V78.2144h395.99Z" id="id_101" style="fill: rgb(178, 236, 247);"></path><path d="M89.0049,112.1958H118.69v-13H82.5049a6.5,6.5,0,0,0-6.5,6.5V143.63h13Z" id="id_102" style="fill: rgb(242, 36, 64);"></path><rect x="82.2856" y="400.5439" width="88.8086" height="13" id="id_103" style="fill: rgb(27, 51, 171);"></rect><rect x="384.2344" y="129.8579" width="44.4043" height="13" id="id_104" style="fill: rgb(24, 49, 171);"></rect><rect x="368.7256" y="105.3286" width="59.9121" height="13" id="id_105" style="fill: rgb(22, 47, 171);"></rect><path d="M422.9951,401.4063H393.31v13h36.185a6.5,6.5,0,0,0,6.5-6.5V369.9722h-13Z" id="id_106" style="fill: rgb(242, 34, 62);"></path><path d="M138.5835,362.3667a25.5219,25.5219,0,0,0,26.415-1.0073l35.4356-22.9346a66.9109,66.9109,0,0,0,30.6689-56.3813V237.1088l17.9024-8.685a25.1314,25.1314,0,0,0,7.7641-5.8922,25.1286,25.1286,0,0,0,7.7637,5.8922l16.3638,7.9386v45.6811a66.9109,66.9109,0,0,0,30.6689,56.3813l35.4356,22.9346a25.867,25.867,0,0,0,39.9218-21.7158v-86.209a90.5238,90.5238,0,0,0-41.4917-76.2783l-24.5488-15.8887a25.9085,25.9085,0,0,0-39.9858,21.7505v38.8954l-10.69-5.186A12.3847,12.3847,0,0,1,263.27,205.65V105.6958h-13V205.65a12.3845,12.3845,0,0,1-6.938,11.0776L231.103,222.66V183.0181a25.9085,25.9085,0,0,0-39.9858-21.7505l-24.5488,15.8887a90.5238,90.5238,0,0,0-41.4917,76.2783v86.209A25.5187,25.5187,0,0,0,138.5835,362.3667Z" id="id_107" style="fill: rgb(138, 19, 35);"></path></g></svg>