<?xml version="1.0" encoding="iso-8859-1"?>
<!-- Generator: Adobe Illustrator 21.0.2, SVG Export Plug-In . SVG Version: 6.00 Build 0)  -->
<svg version="1.1" id="Layer_1" xmlns="http://www.w3.org/2000/svg" xmlns:xlink="http://www.w3.org/1999/xlink" x="0px" y="0px"
	 viewBox="0 0 100.75 100.75" style="enable-background:new 0 0 100.75 100.75;" xml:space="preserve">
<g>
	<path d="M71.977,11.926c-0.001,0-0.001-0.001-0.002-0.001c-5.213-2.49-10.819-0.501-15.324,1.096
		c-2.304,0.817-4.48,1.589-6.093,1.589s-3.789-0.771-6.092-1.589c-4.504-1.598-10.11-3.585-15.327-1.096
		c-7.744,3.707-13.397,12.378-9.219,21.779c1.294,2.919,2.501,5.15,3.472,6.942c1.876,3.467,3.009,5.56,3.009,9.145
		c0,5.575,1.669,23.824,9.084,34.196c3.744,5.243,7.675,7.059,7.841,7.134c0.557,0.252,1.214,0.139,1.657-0.286
		c0.442-0.425,0.581-1.077,0.351-1.645c-0.054-0.132-5.32-13.321-2.18-21.899c1.75-4.755,5.138-7.43,7.24-7.208
		c0.109,0.013,0.221,0.013,0.33,0c2.12-0.224,5.49,2.454,7.236,7.206c3.144,8.58-2.129,21.768-2.183,21.9
		c-0.23,0.568-0.092,1.22,0.35,1.645c0.286,0.274,0.66,0.419,1.041,0.419c0.208,0,0.417-0.043,0.615-0.132
		c0.166-0.075,4.104-1.891,7.849-7.134c7.41-10.374,9.078-28.622,9.078-34.197c0-3.584,1.132-5.676,3.008-9.143
		c0.97-1.793,2.177-4.024,3.47-6.941C85.371,24.31,79.721,15.637,71.977,11.926z M78.445,32.488
		c-1.247,2.812-2.374,4.895-3.368,6.732c-1.956,3.615-3.369,6.227-3.369,10.571c0,6.697-2.083,23.442-8.519,32.453
		c-1.068,1.495-2.15,2.67-3.122,3.575c1.435-4.995,3.046-13.179,0.708-19.563c-1.971-5.365-6.101-9.186-9.806-9.186
		c-0.138,0-0.275,0.005-0.411,0.016c-3.807-0.305-8.174,3.605-10.222,9.171C38,72.638,39.608,80.819,41.041,85.814
		c-0.97-0.904-2.05-2.078-3.116-3.571c-6.441-9.01-8.525-25.755-8.525-32.452c0-4.344-1.414-6.957-3.371-10.572
		c-0.994-1.837-2.121-3.919-3.368-6.732c-2.495-5.613-1.126-13.596,7.771-17.854c4.09-1.955,8.84-0.271,13.031,1.216
		c2.554,0.906,4.966,1.761,7.095,1.761s4.542-0.855,7.096-1.761c4.189-1.486,8.936-3.169,13.029-1.217
		C79.58,18.897,80.944,26.876,78.445,32.488z"/>
	<path d="M35.869,21.015c0.824-0.005,1.491-0.674,1.491-1.5c0-0.829-0.671-1.5-1.5-1.5c-0.151,0-3.723,0.031-6.193,2.735
		c-1.744,1.91-2.474,4.591-2.167,7.967c0.654,7.34,7.12,12.863,7.395,13.095c0.281,0.237,0.625,0.353,0.965,0.353
		c0.427,0,0.852-0.182,1.148-0.534c0.534-0.634,0.453-1.58-0.181-2.114c-0.058-0.049-5.793-4.944-6.339-11.068
		c-0.226-2.49,0.237-4.392,1.375-5.653C33.418,21.071,35.827,21.015,35.869,21.015z"/>
</g>
</svg>
