<svg version="1.1" id="Icons" xmlns="http://www.w3.org/2000/svg" xmlns:xlink="http://www.w3.org/1999/xlink" x="0px" y="0px" viewBox="0 0 32 32" style="enable-background:new 0 0 32 32;" xml:space="preserve">
<style type="text/css">
	.st0{fill:none;stroke:#000000;stroke-width:2;stroke-linecap:round;stroke-linejoin:round;stroke-miterlimit:10;}
</style>
<path class="st0" d="M26,7.3c0-7-8-3.4-10-3.4S6,0.4,6,7.3c0,2.7,0.7,5.1,1.8,7.2C8.7,16.2,9,18.2,8.6,20c-0.4,1.9-1.7,9,0.4,9
	c3,0,3-9,7-9s5,9,7,9c2.2,0,0.8-7.1,0.4-9c-0.4-1.9-0.1-3.8,0.8-5.5C25.3,12.5,26,10,26,7.3z" id="id_101" style="stroke: rgb(156, 156, 156);"></path>
</svg>