<svg id="Layer_1" data-name="Layer 1" xmlns="http://www.w3.org/2000/svg" viewBox="0 0 64 64"><path d="M60.6,22.048a2.437,2.437,0,0,1-2.337-1.683,22.182,22.182,0,0,0-1.534-3.7,2.437,2.437,0,0,1,.458-2.85l0,0a2.4,2.4,0,0,0,0-3.4L53.581,6.812a2.4,2.4,0,0,0-3.4,0l0,0a2.437,2.437,0,0,1-2.85.458,22.1,22.1,0,0,0-3.7-1.534A2.437,2.437,0,0,1,41.952,3.4h0a2.4,2.4,0,0,0-2.4-2.4h-5.1a2.4,2.4,0,0,0-2.4,2.4v.051a2.362,2.362,0,0,1-1.633,2.27,22.154,22.154,0,0,0-3.746,1.55,2.437,2.437,0,0,1-2.85-.458l0,0a2.4,2.4,0,0,0-3.4,0l-3.607,3.607a2.4,2.4,0,0,0,0,3.4l0,0a2.437,2.437,0,0,1,.458,2.85,22.182,22.182,0,0,0-1.534,3.7A2.437,2.437,0,0,1,13.4,22.048a2.4,2.4,0,0,0-2.4,2.4v5.1a2.4,2.4,0,0,0,2.4,2.4,2.437,2.437,0,0,1,2.337,1.683,21.826,21.826,0,0,0,.922,2.391l4.9-4.9A16.07,16.07,0,1,1,32.871,42.442l-4.9,4.9a21.826,21.826,0,0,0,2.391.922A2.437,2.437,0,0,1,32.048,50.6h0a2.4,2.4,0,0,0,2.4,2.4h5.1a2.4,2.4,0,0,0,2.4-2.4h0a2.437,2.437,0,0,1,1.683-2.337,22.182,22.182,0,0,0,3.7-1.534,2.437,2.437,0,0,1,2.85.458l0,0a2.4,2.4,0,0,0,3.4,0l3.607-3.607a2.4,2.4,0,0,0,0-3.4l0,0a2.437,2.437,0,0,1-.458-2.85,22.154,22.154,0,0,0,1.55-3.746,2.362,2.362,0,0,1,2.27-1.633H60.6a2.4,2.4,0,0,0,2.4-2.4v-5.1A2.4,2.4,0,0,0,60.6,22.048Z" id="id_101" style="fill: rgb(163, 163, 163);"></path><polygon points="10.899 61.586 9.485 60.172 15.849 53.808 20.092 58.05 21.506 56.636 18.677 53.808 22.567 49.918 20.445 47.797 21.86 46.383 23.981 48.504 27.87 44.615 25.749 42.494 27.163 41.08 29.284 43.201 33.173 39.312 31.052 37.191 32.466 35.776 34.588 37.898 37.77 34.716 39.184 33.302 36.355 30.473 36.355 30.473 38.477 28.352 37.77 27.645 44.133 21.281 40.484 22.101 36.355 26.23 35.648 25.523 33.527 27.645 33.527 27.645 30.698 24.816 10.192 45.323 7.364 42.494 5.95 43.908 10.192 48.151 3.828 54.515 2.414 53.101 1 54.515 9.485 63 10.899 61.586" id="id_102" style="fill: rgb(81, 196, 219);"></polygon></svg>