<svg xmlns="http://www.w3.org/2000/svg" xmlns:xlink="http://www.w3.org/1999/xlink" width="58px" height="48px" viewBox="0 0 58 48" version="1.1">

<title>066 - Open</title>
<desc>Created with Sketch.</desc>
<g id="Page-1" stroke="none" stroke-width="1" fill="none" fill-rule="evenodd">
<g id="066---Open">
<path d="M51.1,20.084 L29.636,2.407 C29.6064044,2.38902586 29.5756731,2.37299214 29.544,2.359 C29.4888701,2.32145234 29.4298646,2.28993807 29.368,2.265 C29.3099212,2.241126 29.2496294,2.22303845 29.188,2.211 C29.0638151,2.18700548 28.9361849,2.18700548 28.812,2.211 C28.7504057,2.22318032 28.6901275,2.24126378 28.632,2.265 C28.5701354,2.28993807 28.5111299,2.32145234 28.456,2.359 C28.4243269,2.37299214 28.3935956,2.38902586 28.364,2.407 L6.509,20.4 C6.18211812,20.6682711 6.05931738,21.1131544 6.20229816,21.5111213 C6.34527894,21.9090882 6.72312892,22.1740987 7.146,22.173 C7.37749023,22.1734612 7.60182278,22.0927864 7.78,21.945 L29,4.476 L49.833,21.629 C50.2613484,21.949931 50.8664491,21.8766821 51.2058482,21.4628134 C51.5452473,21.0489447 51.4985933,20.4412148 51.1,20.084 Z" id="Path" fill="#a8a8a8"></path>
<rect id="Rectangle" fill="#9e9e9e" x="0" y="18" width="58" height="30" rx="2"></rect>
<circle id="Oval" fill="#a8a8a8" cx="29" cy="4" r="4"></circle>
<path d="M10,23 C6.68766243,23.0033074 4.00330738,25.6876624 4,29 L4,35 C4.00000005,38.3137085 6.68629154,40.9999999 10,40.9999999 C13.3137085,40.9999999 16,38.3137085 16,35 L16,29 C15.9966926,25.6876624 13.3123376,23.0033074 10,23 Z M14,35 C14,37.209139 12.209139,39 10,39 C7.790861,39 6,37.209139 6,35 L6,29 C6,26.790861 7.790861,25 10,25 C12.209139,25 14,26.790861 14,29 L14,35 Z" id="Shape" fill="#FFFFFF" fill-rule="nonzero"></path>
<path d="M24,23 L19,23 C18.4477153,23 18,23.4477153 18,24 L18,40 C18,40.5522847 18.4477153,41 19,41 C19.5522847,41 20,40.5522847 20,40 L20,35 L24,35 C27.3137085,35 30,32.3137085 30,29 C30,25.6862915 27.3137085,23 24,23 Z M24,33 L20,33 L20,25 L24,25 C26.209139,25 28,26.790861 28,29 C28,31.209139 26.209139,33 24,33 Z" id="Shape" fill="#FFFFFF" fill-rule="nonzero"></path>
<path d="M40,25 C40.5522847,25 41,24.5522847 41,24 C41,23.4477153 40.5522847,23 40,23 L32,23 C31.4477153,23 31,23.4477153 31,24 L31,40 C31,40.5522847 31.4477153,41 32,41 L40,41 C40.5522847,41 41,40.5522847 41,40 C41,39.4477153 40.5522847,39 40,39 L33,39 L33,33 L38,33 C38.5522847,33 39,32.5522847 39,32 C39,31.4477153 38.5522847,31 38,31 L33,31 L33,25 L40,25 Z" id="Path" fill="#FFFFFF"></path>
<path d="M53,23 C52.4477153,23 52,23.4477153 52,24 L52,36.514 L43.848,23.47 C43.6115629,23.0916979 43.1531408,22.9157624 42.7243172,23.0387476 C42.2954936,23.1617327 41.9999983,23.553889 42,24 L42,40 C42,40.5522847 42.4477153,41 43,41 C43.5522847,41 44,40.5522847 44,40 L44,27.486 L52.152,40.53 C52.3884371,40.9083021 52.8468592,41.0842376 53.2756828,40.9612524 C53.7045064,40.8382673 54.0000017,40.446111 54,40 L54,24 C54,23.4477153 53.5522847,23 53,23 Z" id="Path" fill="#FFFFFF"></path>
</g>
</g>
</svg>